# xmcd CD database file
#
# Track frame offsets:
#	150
#	12834
#	26220
#	41342
#	55084
#	68858
#	85179
#	96455
#	114475
#	132647
#
# Disc length: 1946 seconds
#
# Revision: 0
# Processed by: cddbd v1.4PL0 Copyright (c) Steve Scherf et al.
# Submitted via: CDex 1.50Beta7
#
DISCID=8507980a
DTITLE=Various Artist - On The Holiday Train
DYEAR=2002
DGENRE=Country
TTITLE0=Tom Jackson - Mystery Train
TTITLE1=Duane Steele - It Came Upon A Midnight Clear
TTITLE2=Amanda Stott - Never Be The Same
TTITLE3=Beverley Mahood - What Child Is This
TTITLE4=Tom Jackson - Star In The East
TTITLE5=Duane Steele - The First Noel
TTITLE6=Beverley Mahood - Angels We Have Heard On High
TTITLE7=Amanda Stott - Mary's Boy Child
TTITLE8=Tom Jackson - The Huron Carole
TTITLE9=Beverley Mahood, Tracey Brown and Amanda Stott - On the Holiday Train
EXTD=YEAR: 2002
EXTT0=
EXTT1=
EXTT2=
EXTT3=
EXTT4=
EXTT5=
EXTT6=
EXTT7=
EXTT8=
EXTT9=
PLAYORDER=
